Coordinates
version=1
nRows=5
nColumns=40
inDegrees=yes

Units are S.I. units (second, meters, Newtons, ...)
Angles are in degrees.

endheader
time	pelvis_tilt	pelvis_list	pelvis_rotation	pelvis_tx	pelvis_ty	pelvis_tz	hip_flexion_r	hip_adduction_r	hip_rotation_r	knee_angle_r	knee_angle_r_beta	ankle_angle_r	subtalar_angle_r	mtp_angle_r	hip_flexion_l	hip_adduction_l	hip_rotation_l	knee_angle_l	knee_angle_l_beta	ankle_angle_l	subtalar_angle_l	mtp_angle_l	lumbar_extension	lumbar_bending	lumbar_rotation	arm_flex_r	arm_add_r	arm_rot_r	elbow_flex_r	pro_sup_r	wrist_flex_r	wrist_dev_r	arm_flex_l	arm_add_l	arm_rot_l	elbow_flex_l	pro_sup_l	wrist_flex_l	wrist_dev_l
     32.23000000	     -2.96931728	     -4.33587195	      0.96305415	      1.00758524	      0.92130386	      0.42170463	     28.42948765	     -7.20592446	     -3.62238636	     63.68333845	     63.68333845	      9.60271742	    -12.94123508	      1.51020948	     20.42010690	     -3.49575297	     -5.99958806	     29.68603318	     29.68603318	     16.06088246	    -12.27165409	     -1.16075602	     -9.76700085	      2.38028095	      1.19462459	     20.37535476	    -11.89781319	     -1.59513940	     44.07801397	     44.90577887	      0.00000000	      0.00000000	     16.30330046	    -12.42535863	     18.74002494	     26.02121302	     43.81957201	      0.00000000	      0.00000000
     32.25157143	     -2.49339577	     -4.20843923	      0.89841921	      1.00719937	      0.92008019	      0.41853214	     28.81559529	     -7.41978487	     -3.20504236	     63.60188793	     63.60188793	      9.61658118	    -13.48703862	      1.61649268	     20.02410838	     -3.08451019	     -5.65127948	     30.46719829	     30.46719829	     16.49660713	    -12.90184646	     -1.32042745	    -10.31864542	      2.50839118	      0.01459770	     16.51700988	    -11.42964764	     -1.29025321	     42.44667571	     44.93142151	      0.00000000	      0.00000000	     17.51743077	    -12.64966131	     18.61103958	     26.50548165	     43.86405860	      0.00000000	      0.00000000
     32.27314286	     -2.34541970	     -4.11117695	      0.76082628	      1.00640181	      0.91853822	      0.41519762	     29.57719527	     -7.58453441	     -2.70041938	     63.22055325	     63.22055325	      9.57462081	    -13.99784000	      1.96652490	     20.03598246	     -2.46194244	     -4.71397495	     31.28081220	     31.28081220	     16.97598671	    -14.83241167	      0.05221096	    -10.59423999	      2.65729412	      0.42765652	     12.85777411	    -12.09109059	     -0.12204803	     37.40534639	     45.08562437	      0.00000000	      0.00000000	     19.70125675	    -11.90943571	     17.88245554	     27.63271699	     44.09086943	      0.00000000	      0.00000000
     32.29471429	     -2.10456662	     -4.10299364	      0.65840013	      1.00573446	      0.91723061	      0.41199761	     30.08570685	     -7.75771872	     -2.42570982	     62.38146796	     62.38146796	      9.60203955	    -14.23129895	      2.04360942	     19.89392057	     -2.14072395	     -4.36630415	     32.03846685	     32.03846685	     17.40521057	    -15.61822496	      0.28354776	    -11.01537214	      2.97500437	      0.38063861	      8.82738530	    -12.41551327	      0.28096857	     34.59626499	     45.15834560	      0.00000000	      0.00000000	     21.50731793	    -11.60831008	     17.43296289	     28.95588623	     44.20631016	      0.00000000	      0.00000000
     32.31628571	     -1.90242062	     -4.05955605	      0.54039520	      1.00501027	      0.91633212	      0.40892859	     30.45648083	     -8.01675694	     -2.24328416	     60.92527442	     60.92527442	      9.44226850	    -14.30078818	      1.26561879	     19.72840775	     -1.73961300	     -3.93744282	     32.71256684	     32.71256684	     18.40022941	    -16.18386095	      2.29501805	    -11.36176147	      3.29082697	     -0.41030752	      6.47829799	    -12.28922564	      0.99265511	     29.12252070	     45.38656077	      0.00000000	      0.00000000	     22.81590678	    -11.60119040	     15.47101738	     30.54773608	     44.59188450	      0.00000000	      0.00000000
